<svg width="1158" height="1158" xmlns="http://www.w3.org/2000/svg" xmlns:xlink="http://www.w3.org/1999/xlink" xml:space="preserve" overflow="hidden"><g transform="translate(-1862 -332)"><path d="M2440.91 1489.87C2352.35 1489.87 2272.42 1476.26 2201.11 1449.04 2129.81 1421.82 2069.04 1383.1 2018.82 1332.88 1968.6 1282.66 1929.98 1221.9 1902.95 1150.59 1875.92 1079.29 1862.41 999.545 1862.41 911.372 1862.41 864.601 1866.72 818.117 1875.35 771.922 1883.97 725.726 1898.06 681.159 1917.61 638.225 1908.41 606.789 1903.81 574.395 1903.81 541.042 1903.81 530.69 1904.58 518.421 1906.11 504.237 1907.65 490.052 1909.85 475.482 1912.73 460.532 1915.6 445.582 1919.24 431.304 1923.65 417.692 1928.06 404.086 1933.14 392.676 1938.89 383.474 1940.42 381.558 1942.34 379.549 1944.64 377.44 1946.94 375.33 1949.43 374.279 1952.12 374.279 1955.18 374.279 1957.49 375.33 1959.02 377.44 1960.55 379.549 1962.09 381.558 1963.62 383.474 1974.74 401.112 1986.43 416.447 1998.7 429.481 2010.96 442.515 2026.11 454.59 2044.13 465.708 2071.73 441.557 2101.15 421.144 2132.4 404.465 2163.64 387.792 2196.13 374.086 2229.87 363.348 2263.6 352.616 2298.2 344.852 2333.66 340.062 2369.12 335.271 2404.87 332.87 2440.91 332.87 2476.95 332.87 2512.69 335.271 2548.16 340.062 2583.62 344.852 2618.22 352.616 2651.95 363.348 2685.69 374.086 2718.18 387.792 2749.42 404.465 2780.67 421.144 2810.09 441.557 2837.7 465.708 2855.71 454.59 2870.86 442.515 2883.13 429.481 2895.39 416.447 2907.08 401.112 2918.2 383.474 2919.74 381.558 2921.27 379.549 2922.81 377.44 2924.34 375.33 2926.64 374.279 2929.7 374.279 2932.39 374.279 2934.88 375.33 2937.18 377.44 2939.48 379.549 2941.39 381.558 2942.93 383.474 2948.68 392.676 2953.76 404.086 2958.17 417.692 2962.58 431.304 2966.22 445.582 2969.09 460.532 2971.97 475.482 2974.18 490.145 2975.71 504.523 2977.24 518.9 2978.01 531.262 2978.01 541.614 2978.01 574.967 2973.41 607.361 2964.21 638.798 2983.76 681.738 2997.85 726.206 3006.47 772.209 3015.1 818.213 3019.41 864.601 3019.41 911.372 3019.41 999.545 3005.9 1079.29 2978.87 1150.59 2951.84 1221.9 2913.22 1282.66 2863 1332.88 2812.77 1383.1 2752.01 1421.82 2680.71 1449.04 2609.4 1476.26 2529.47 1489.87 2440.91 1489.87Z" fill="#7030A0" fill-rule="evenodd"/><path d="M2213.74 1158.87C2188.06 1158.87 2163.9 1153.98 2141.28 1144.21 2118.66 1134.43 2098.92 1121.11 2082.04 1104.25 2065.18 1087.38 2051.85 1067.74 2042.08 1045.31 2032.3 1022.89 2027.41 998.839 2027.41 973.158 2027.41 947.476 2032.3 923.327 2042.08 900.712 2051.85 878.097 2065.18 858.357 2082.04 841.491 2098.92 824.626 2118.66 811.306 2141.28 801.531 2163.9 791.757 2188.06 786.87 2213.74 786.87 2239.43 786.87 2263.49 791.757 2285.92 801.531 2308.35 811.306 2328 824.626 2344.87 841.491 2361.74 858.357 2375.06 878.097 2384.84 900.712 2394.61 923.327 2399.5 947.476 2399.5 973.158 2399.5 998.839 2394.61 1022.89 2384.84 1045.31 2375.06 1067.74 2361.74 1087.38 2344.87 1104.25 2328 1121.11 2308.35 1134.43 2285.92 1144.21 2263.49 1153.98 2239.43 1158.87 2213.74 1158.87ZM2668.08 1158.87C2642.39 1158.87 2618.33 1153.98 2595.9 1144.21 2573.47 1134.43 2553.82 1121.11 2536.95 1104.25 2520.09 1087.38 2506.76 1067.74 2496.98 1045.31 2487.21 1022.89 2482.32 998.839 2482.32 973.158 2482.32 947.476 2487.21 923.327 2496.98 900.712 2506.76 878.097 2520.09 858.357 2536.95 841.491 2553.82 824.626 2573.47 811.306 2595.9 801.531 2618.33 791.757 2642.39 786.87 2668.08 786.87 2693.77 786.87 2717.92 791.757 2740.54 801.531 2763.16 811.306 2782.91 824.626 2799.78 841.491 2816.65 858.357 2829.97 878.097 2839.75 900.712 2849.53 923.327 2854.41 947.476 2854.41 973.158 2854.41 998.839 2849.53 1022.89 2839.75 1045.31 2829.97 1067.74 2816.65 1087.38 2799.78 1104.25 2782.91 1121.11 2763.16 1134.43 2740.54 1144.21 2717.92 1153.98 2693.77 1158.87 2668.08 1158.87Z" fill="#FFFFFF" fill-rule="evenodd"/><path d="M2399.52 840.412C2399.52 849.236 2396.16 856.334 2389.45 861.706 2382.75 867.077 2375.18 869.763 2366.74 869.763 2343.75 869.763 2321.99 866.214 2301.49 859.116 2280.98 852.018 2262.48 842.139 2246 829.477 2229.52 816.816 2215.15 801.564 2202.88 783.723 2190.62 765.883 2181.03 746.219 2174.14 724.733 2172.99 721.28 2172.41 717.827 2172.41 714.374 2172.41 705.55 2175.48 698.26 2181.61 692.507 2187.74 686.747 2195.22 683.871 2204.03 683.871 2210.93 683.871 2216.87 685.788 2221.86 689.624 2226.84 693.465 2230.48 698.646 2232.78 705.166 2238.53 720.513 2245.33 734.709 2253.19 747.754 2261.05 760.799 2271.88 772.309 2285.67 782.285 2299.09 791.493 2312.6 797.632 2326.21 800.701 2339.81 803.771 2354.48 806.073 2370.19 807.608 2379.39 808.375 2386.58 811.732 2391.75 817.679 2396.93 823.626 2399.52 831.204 2399.52 840.412ZM2482.31 840.412C2482.31 849.62 2485.66 856.814 2492.37 861.994 2499.08 867.173 2506.65 869.763 2515.08 869.763 2538.08 869.763 2559.83 866.214 2580.34 859.116 2600.84 852.018 2619.33 842.139 2635.82 829.477 2652.3 816.816 2666.68 801.564 2678.94 783.723 2691.2 765.883 2700.79 746.219 2707.69 724.733 2708.84 721.28 2709.41 717.827 2709.41 714.374 2709.41 705.55 2706.34 698.26 2700.22 692.507 2694.08 686.747 2686.61 683.871 2677.79 683.871 2670.89 683.871 2664.95 685.788 2659.97 689.624 2654.98 693.465 2651.34 698.646 2649.04 705.166 2642.91 721.28 2636.1 735.668 2628.63 748.329 2621.16 760.991 2610.14 772.309 2595.57 782.285 2582.16 791.493 2568.75 797.632 2555.33 800.701 2541.91 803.771 2527.34 806.073 2511.63 807.608 2502.43 808.375 2495.25 811.732 2490.07 817.679 2484.9 823.626 2482.31 831.204 2482.31 840.412ZM2275.33 1076.95C2286.82 1076.95 2297.56 1074.74 2307.53 1070.33 2317.49 1065.92 2326.21 1059.97 2333.68 1052.49 2341.16 1045.01 2347.1 1036.28 2351.51 1026.3 2355.91 1016.33 2358.12 1005.58 2358.12 994.074 2358.12 982.564 2355.91 971.821 2351.51 961.845 2347.1 951.87 2341.16 943.141 2333.68 935.66 2326.21 928.178 2317.49 922.231 2307.53 917.819 2297.56 913.407 2286.82 911.201 2275.33 911.201 2263.83 911.201 2253.09 913.407 2243.13 917.819 2233.16 922.231 2224.44 928.178 2216.97 935.66 2209.49 943.141 2203.65 951.87 2199.43 961.845 2195.22 971.821 2193.11 982.564 2193.11 994.074 2193.11 1005.58 2195.22 1016.33 2199.43 1026.3 2203.65 1036.28 2209.49 1045.01 2216.97 1052.49 2224.44 1059.97 2233.16 1065.92 2243.13 1070.33 2253.09 1074.74 2263.83 1076.95 2275.33 1076.95ZM2605.92 1076.95C2617.42 1076.95 2628.16 1074.74 2638.12 1070.33 2648.08 1065.92 2656.81 1059.97 2664.28 1052.49 2671.75 1045.01 2677.69 1036.28 2682.1 1026.3 2686.51 1016.33 2688.72 1005.58 2688.72 994.074 2688.72 982.564 2686.51 971.821 2682.1 961.845 2677.69 951.87 2671.75 943.141 2664.28 935.66 2656.81 928.178 2648.08 922.231 2638.12 917.819 2628.16 913.407 2617.42 911.201 2605.92 911.201 2594.42 911.201 2583.69 913.407 2573.73 917.819 2563.76 922.231 2555.04 928.178 2547.57 935.66 2540.09 943.141 2534.25 951.87 2530.03 961.845 2525.81 971.821 2523.7 982.564 2523.7 994.074 2523.7 1005.58 2525.81 1016.33 2530.03 1026.3 2534.25 1036.28 2540.09 1045.01 2547.57 1052.49 2555.04 1059.97 2563.76 1065.92 2573.73 1070.33 2583.69 1074.74 2594.42 1076.95 2605.92 1076.95ZM2233.93 1242.12C2222.43 1242.12 2212.75 1246.15 2204.89 1254.21 2197.04 1262.27 2193.11 1272.05 2193.11 1283.56 2193.11 1292.38 2195.79 1300.63 2201.16 1308.31 2205.37 1314.45 2210.45 1320.3 2216.39 1325.86 2222.34 1331.42 2228.18 1336.51 2233.93 1341.11 2263.06 1364.13 2295.54 1381.01 2331.39 1391.76 2367.22 1402.5 2403.73 1407.87 2440.91 1407.87 2478.09 1407.87 2514.6 1402.5 2550.44 1391.76 2586.28 1381.01 2618.76 1364.13 2647.89 1341.11 2653.65 1336.51 2659.49 1331.42 2665.43 1325.86 2671.37 1320.3 2676.45 1314.45 2680.67 1308.31 2686.03 1300.63 2688.72 1292.38 2688.72 1283.56 2688.72 1272.43 2684.69 1262.74 2676.64 1254.5 2668.59 1246.25 2659.01 1242.12 2647.89 1242.12 2640.61 1242.12 2634.38 1243.56 2629.21 1246.44 2624.03 1249.32 2619.15 1253.44 2614.55 1258.81 2604.58 1270.32 2592.7 1280.3 2578.9 1288.74 2565.1 1297.18 2550.44 1304.09 2534.91 1309.46 2519.39 1314.83 2503.58 1318.76 2487.48 1321.26 2471.39 1323.75 2455.86 1325 2440.91 1325 2425.97 1325 2410.44 1323.75 2394.34 1321.26 2378.24 1318.76 2362.43 1314.83 2346.91 1309.46 2331.39 1304.09 2316.72 1297.18 2302.92 1288.74 2289.13 1280.3 2277.24 1270.32 2267.28 1258.81 2262.68 1253.44 2257.79 1249.32 2252.62 1246.44 2247.44 1243.56 2241.21 1242.12 2233.93 1242.12Z" fill="#402A32" fill-rule="evenodd"/></g></svg>